<?xml version="1.0" encoding="UTF-8"?>
<svg width="2728px" height="2035px" viewBox="0 0 2728 2035" version="1.1" xmlns="http://www.w3.org/2000/svg" xmlns:xlink="http://www.w3.org/1999/xlink">
    <title>Fill 1</title>
    <g id="Page-1" stroke="none" stroke-width="1" fill="none" fill-rule="evenodd">
        <path d="M1504,779 L1838,714 L2728,0 L0,719 L1759,566 L1504,779 Z M694,1467 L811,1467 L627,1283 L644,1283 C826,1283 826,999 644,999 L310,999 L310,1083 L694,1467 Z M410,1183 L410,1099 L644,1099 C691,1099 691,1183 644,1183 L410,1183 Z M0,2035 L2725,2035 L508,1782 L690,1636 L458,1653 L0,2035 Z M850,1467 L1318,1467 L1318,1366 L950,1366 L950,1283 L1284,1283 L1284,1183 L950,1183 L950,1099 L1318,1099 L1318,999 L850,999 L850,1467 Z M1354,1467 L1470,1467 L1644,1165 L1817,1467 L1933,1467 L1644,965 L1354,1467 Z M1970,1467 L2438,1467 L2438,1366 L2070,1366 L2070,999 L1970,999 L1970,1467 Z" id="Fill-1" fill="#4E4E4E"></path>
    </g>
</svg>