<?xml version="1.0" encoding="UTF-8"?>
<svg width="214px" height="53px" viewBox="0 0 214 53" version="1.1" xmlns="http://www.w3.org/2000/svg" xmlns:xlink="http://www.w3.org/1999/xlink">
    <title>Real_Z</title>
    <g id="Page-1" stroke="none" stroke-width="1" fill="none" fill-rule="evenodd">
        <g id="Real_Z" fill-rule="nonzero">
            <path d="M11.9200958,43.0463328 C9.78467754,44.8322525 7.69529652,46.5721067 5.68736595,48.2481781 C3.73255524,49.8817276 1.82378173,51.4692117 0,53 C1.6254676,53 3.30759639,53 5.03930371,53 C8.37877201,53 11.8705172,53 15.5499526,53 C19.4241608,53 23.5073071,53 27.8383461,53 C33.6956955,53 39.9921692,53 46.7879695,53 C54.1716295,53 62.1821038,53 70.9220909,53 C62.1821038,52.0113659 54.1716295,51.0936017 46.7879695,50.2537942 C39.9921692,49.4777696 33.6956955,48.7548974 27.8383461,48.088721 C22.6396828,47.4969579 17.7845279,46.9441733 13.2339269,46.4232801 C14.7744027,45.1866016 16.3573744,43.9180317 17.9615941,42.6211139 C15.8970023,42.766397 13.8713652,42.9081367 11.9200958,43.0463328 Z M59.9510699,2.91274988 C53.7183401,4.55692987 47.8751559,6.0983486 42.407352,7.54054958 C37.2618086,8.89770676 32.4031124,10.1804506 27.8454287,11.3852377 C22.3988728,12.8168082 17.3170732,14.1597914 12.5610754,15.4141873 C8.11671405,16.587083 3.92732805,17.6926523 0,18.7308952 C3.92732805,18.397807 8.11671405,18.0363709 12.5610754,17.6465869 C17.3170732,17.2319984 22.3988728,16.789062 27.8454287,16.3142341 C33.3982244,15.8323193 39.3618136,15.3149696 45.7928575,14.7550979 C43.522869,16.6473223 41.3130829,18.4899378 39.1493341,20.2900314 C41.9540625,19.7478772 44.8367001,19.1880056 47.8468253,18.6104165 C51.3173226,15.8181454 54.9294728,12.9124824 58.7009826,9.88634084 C62.6247693,6.73617704 66.7043743,3.44781708 71,0 C67.1505811,1.01343852 63.485311,1.98081166 59.9510699,2.91274988 Z" id="Shape" fill="#D66F00"></path>
            <path d="M16.7119782,26.8812364 C21.461709,26.8812364 21.461709,34.2413232 16.7119782,34.2413232 L16.2756699,34.2413232 L21.0679673,39 L18.0138088,39 L15.8109837,37.4490239 L18.0138088,39 L8,29.0490781 L8,26.8812364 L16.7119782,26.8812364 Z M16.7119782,29.4791215 L10.6107557,29.4791215 L10.6107557,31.6434382 L16.7119782,31.6434382 C17.9251283,31.6434382 17.9251283,29.4791215 16.7119782,29.4791215 Z M34.795718,26.8812364 L34.795718,29.4791215 L25.2146703,29.4791215 L25.2146703,31.6434382 L33.9266485,31.6434382 L33.9266485,34.2413232 L25.2146703,34.2413232 L25.2146703,36.402115 L34.795718,36.402115 L34.795718,39 L22.6003674,39 L22.6003674,26.8812364 L34.795718,26.8812364 Z M43.2984101,31.1922451 C41.7872933,33.7936551 40.2761766,36.402115 38.7579654,39 L35.7463736,39 L43.2984101,26 L50.8539938,39 L47.8282131,39 C46.3206436,36.3950651 44.8095268,33.7936551 43.2984101,31.1922451 Z M54.4154051,36.402115 L64,36.402115 L64,39 L51.8011022,39 L51.8011022,26.8812364 L54.4154051,26.8812364 L54.4154051,36.402115 Z" id="Shape" fill="#FFFFFF"></path>
            <path d="M112.62,23.86 L119.32,38.8 L117.78,38.8 L115.52,33.9 L109.32,33.9 L107.08,38.8 L105.48,38.8 L112.26,23.86 L112.62,23.86 Z M112.44,27.04 L109.98,32.44 L114.88,32.44 L112.44,27.04 Z" id="Shape" fill="#919191"></path>
            <path d="M121.58,24.44 L124.42,24.44 C125.926667,24.44 127.07,24.7433333 127.85,25.35 C128.63,25.9566667 129.02,26.8266667 129.02,27.96 C129.02,28.5866667 128.863333,29.1633333 128.55,29.69 C128.236667,30.2166667 127.78,30.64 127.18,30.96 C128.166667,31.28 128.916667,31.76 129.43,32.4 C129.943333,33.04 130.2,33.8 130.2,34.68 C130.2,35.8666667 129.766667,36.85 128.9,37.63 C128.033333,38.41 126.913333,38.8 125.54,38.8 L121.58,38.8 L121.58,24.44 Z M123,25.84 L123,30.44 L123.82,30.44 C125.073333,30.44 126.006667,30.24 126.62,29.84 C127.233333,29.44 127.54,28.8133333 127.54,27.96 C127.54,26.5466667 126.58,25.84 124.66,25.84 L123,25.84 Z M123,31.88 L123,37.4 L124.78,37.4 C125.806667,37.4 126.563333,37.2966667 127.05,37.09 C127.536667,36.8833333 127.933333,36.5633333 128.24,36.13 C128.546667,35.6966667 128.7,35.2533333 128.7,34.8 C128.7,34.3466667 128.613333,33.9466667 128.44,33.6 C128.266667,33.2533333 128.01,32.9466667 127.67,32.68 C127.33,32.4133333 126.923333,32.2133333 126.45,32.08 C125.976667,31.9466667 125.093333,31.88 123.8,31.88 L123,31.88 Z" id="Shape" fill="#919191"></path>
            <path d="M132.4,31.68 C132.4,30.2933333 132.733333,29.0133333 133.4,27.84 C134.066667,26.6666667 134.98,25.7466667 136.14,25.08 C137.3,24.4133333 138.563333,24.08 139.93,24.08 C141.296667,24.08 142.57,24.41 143.75,25.07 C144.93,25.73 145.856667,26.6433333 146.53,27.81 C147.203333,28.9766667 147.54,30.2433333 147.54,31.61 C147.54,32.9766667 147.206667,34.2433333 146.54,35.41 C145.873333,36.5766667 144.956667,37.4933333 143.79,38.16 C142.623333,38.8266667 141.356667,39.16 139.99,39.16 C138.623333,39.16 137.353333,38.83 136.18,38.17 C135.006667,37.51 134.083333,36.6 133.41,35.44 C132.736667,34.28 132.4,33.0266667 132.4,31.68 Z M146.04,31.62 C146.04,29.9 145.443333,28.4466667 144.25,27.26 C143.056667,26.0733333 141.62,25.48 139.94,25.48 C138.22,25.48 136.783333,26.0766667 135.63,27.27 C134.476667,28.4633333 133.9,29.9166667 133.9,31.63 C133.9,33.3433333 134.493333,34.7933333 135.68,35.98 C136.866667,37.1666667 138.3,37.76 139.98,37.76 C141.66,37.76 143.09,37.18 144.27,36.02 C145.45,34.86 146.04,33.3933333 146.04,31.62 Z" id="Shape" fill="#919191"></path>
            <path d="M150.46,24.44 L151.9,24.44 L151.9,33.1 C151.9,33.9933333 151.923333,34.6666667 151.97,35.12 C152.016667,35.5733333 152.176667,36.01 152.45,36.43 C152.723333,36.85 153.106667,37.1833333 153.6,37.43 C154.093333,37.6766667 154.623333,37.8 155.19,37.8 C155.756667,37.8 156.253333,37.6966667 156.68,37.49 C157.106667,37.2833333 157.466667,36.9933333 157.76,36.62 C158.053333,36.2466667 158.256667,35.8366667 158.37,35.39 C158.483333,34.9433333 158.54,34.18 158.54,33.1 L158.54,24.44 L159.96,24.44 L159.96,33.1 C159.96,34.5533333 159.813333,35.6666667 159.52,36.44 C159.226667,37.2133333 158.71,37.86 157.97,38.38 C157.23,38.9 156.36,39.16 155.36,39.16 C154.56,39.16 153.84,39.03 153.2,38.77 C152.56,38.51 152.026667,38.1466667 151.6,37.68 C151.173333,37.2133333 150.876667,36.6933333 150.71,36.12 C150.543333,35.5466667 150.46,34.54 150.46,33.1 L150.46,24.44 Z" id="Path" fill="#919191"></path>
            <polygon id="Path" fill="#919191" points="162.08 25.84 162.08 24.44 169.96 24.44 169.96 25.84 166.76 25.84 166.76 38.8 165.3 38.8 165.3 25.84"></polygon>
            <polygon id="Path" fill="#919191" points="186.38 38.8 188.42 24.44 188.64 24.44 194.48 36.22 200.28 24.44 200.5 24.44 202.56 38.8 201.14 38.8 199.74 28.52 194.66 38.8 194.3 38.8 189.16 28.44 187.76 38.8"></polygon>
            <polygon id="Path" fill="#919191" points="205.42 24.44 213.66 24.44 213.66 25.86 206.86 25.86 206.86 30.34 213.6 30.34 213.6 31.74 206.86 31.74 206.86 37.38 213.6 37.38 213.6 38.8 205.42 38.8"></polygon>
        </g>
    </g>
</svg>