<?xml version="1.0" encoding="UTF-8"?>
<svg width="165px" height="53px" viewBox="0 0 165 53" version="1.1" xmlns="http://www.w3.org/2000/svg" xmlns:xlink="http://www.w3.org/1999/xlink">
    <title>Real_Z Copy</title>
    <g id="Page-1" stroke="none" stroke-width="1" fill="none" fill-rule="evenodd">
        <g id="Real_Z-Copy" fill-rule="nonzero">
            <path d="M11.9200958,43.0463328 C9.78467754,44.8322525 7.69529652,46.5721067 5.68736595,48.2481781 C3.73255524,49.8817276 1.82378173,51.4692117 0,53 C1.6254676,53 3.30759639,53 5.03930371,53 C8.37877201,53 11.8705172,53 15.5499526,53 C19.4241608,53 23.5073071,53 27.8383461,53 C33.6956955,53 39.9921692,53 46.7879695,53 C54.1716295,53 62.1821038,53 70.9220909,53 C62.1821038,52.0113659 54.1716295,51.0936017 46.7879695,50.2537942 C39.9921692,49.4777696 33.6956955,48.7548974 27.8383461,48.088721 C22.6396828,47.4969579 17.7845279,46.9441733 13.2339269,46.4232801 C14.7744027,45.1866016 16.3573744,43.9180317 17.9615941,42.6211139 C15.8970023,42.766397 13.8713652,42.9081367 11.9200958,43.0463328 Z M59.9510699,2.91274988 C53.7183401,4.55692987 47.8751559,6.0983486 42.407352,7.54054958 C37.2618086,8.89770676 32.4031124,10.1804506 27.8454287,11.3852377 C22.3988728,12.8168082 17.3170732,14.1597914 12.5610754,15.4141873 C8.11671405,16.587083 3.92732805,17.6926523 0,18.7308952 C3.92732805,18.397807 8.11671405,18.0363709 12.5610754,17.6465869 C17.3170732,17.2319984 22.3988728,16.789062 27.8454287,16.3142341 C33.3982244,15.8323193 39.3618136,15.3149696 45.7928575,14.7550979 C43.522869,16.6473223 41.3130829,18.4899378 39.1493341,20.2900314 C41.9540625,19.7478772 44.8367001,19.1880056 47.8468253,18.6104165 C51.3173226,15.8181454 54.9294728,12.9124824 58.7009826,9.88634084 C62.6247693,6.73617704 66.7043743,3.44781708 71,0 C67.1505811,1.01343852 63.485311,1.98081166 59.9510699,2.91274988 Z" id="Shape" fill="#D66F00"></path>
            <path d="M16.7119782,26.8812364 C21.461709,26.8812364 21.461709,34.2413232 16.7119782,34.2413232 L16.2756699,34.2413232 L21.0679673,39 L18.0138088,39 L15.8109837,37.4490239 L18.0138088,39 L8,29.0490781 L8,26.8812364 L16.7119782,26.8812364 Z M16.7119782,29.4791215 L10.6107557,29.4791215 L10.6107557,31.6434382 L16.7119782,31.6434382 C17.9251283,31.6434382 17.9251283,29.4791215 16.7119782,29.4791215 Z M34.795718,26.8812364 L34.795718,29.4791215 L25.2146703,29.4791215 L25.2146703,31.6434382 L33.9266485,31.6434382 L33.9266485,34.2413232 L25.2146703,34.2413232 L25.2146703,36.402115 L34.795718,36.402115 L34.795718,39 L22.6003674,39 L22.6003674,26.8812364 L34.795718,26.8812364 Z M43.2984101,31.1922451 C41.7872933,33.7936551 40.2761766,36.402115 38.7579654,39 L35.7463736,39 L43.2984101,26 L50.8539938,39 L47.8282131,39 C46.3206436,36.3950651 44.8095268,33.7936551 43.2984101,31.1922451 Z M54.4154051,36.402115 L64,36.402115 L64,39 L51.8011022,39 L51.8011022,26.8812364 L54.4154051,26.8812364 L54.4154051,36.402115 Z" id="Shape" fill="#FFFFFF"></path>
            <polygon id="Path" fill="#919191" points="106.72 24.44 108.18 24.44 108.18 30.46 115.48 30.46 115.48 24.44 116.92 24.44 116.92 38.8 115.48 38.8 115.48 31.86 108.18 31.86 108.18 38.8 106.72 38.8"></polygon>
            <path d="M119.78,31.68 C119.78,30.2933333 120.113333,29.0133333 120.78,27.84 C121.446667,26.6666667 122.36,25.7466667 123.52,25.08 C124.68,24.4133333 125.943333,24.08 127.31,24.08 C128.676667,24.08 129.95,24.41 131.13,25.07 C132.31,25.73 133.236667,26.6433333 133.91,27.81 C134.583333,28.9766667 134.92,30.2433333 134.92,31.61 C134.92,32.9766667 134.586667,34.2433333 133.92,35.41 C133.253333,36.5766667 132.336667,37.4933333 131.17,38.16 C130.003333,38.8266667 128.736667,39.16 127.37,39.16 C126.003333,39.16 124.733333,38.83 123.56,38.17 C122.386667,37.51 121.463333,36.6 120.79,35.44 C120.116667,34.28 119.78,33.0266667 119.78,31.68 Z M133.42,31.62 C133.42,29.9 132.823333,28.4466667 131.63,27.26 C130.436667,26.0733333 129,25.48 127.32,25.48 C125.6,25.48 124.163333,26.0766667 123.01,27.27 C121.856667,28.4633333 121.28,29.9166667 121.28,31.63 C121.28,33.3433333 121.873333,34.7933333 123.06,35.98 C124.246667,37.1666667 125.68,37.76 127.36,37.76 C129.04,37.76 130.47,37.18 131.65,36.02 C132.83,34.86 133.42,33.3933333 133.42,31.62 Z" id="Shape" fill="#919191"></path>
            <polygon id="Path" fill="#919191" points="137.14 38.8 139.18 24.44 139.4 24.44 145.24 36.22 151.04 24.44 151.26 24.44 153.32 38.8 151.9 38.8 150.5 28.52 145.42 38.8 145.06 38.8 139.92 28.44 138.52 38.8"></polygon>
            <polygon id="Path" fill="#919191" points="156.18 24.44 164.42 24.44 164.42 25.86 157.62 25.86 157.62 30.34 164.36 30.34 164.36 31.74 157.62 31.74 157.62 37.38 164.36 37.38 164.36 38.8 156.18 38.8"></polygon>
        </g>
    </g>
</svg>